HIERARCHY
ROOT Hips
{
	OFFSET -3.958830 18.904000 13.208200
	CHANNELS 6 Xposition Yposition Zposition Zrotation Yrotation Xrotation 
	JOINT LHipJoint
	{
		OFFSET 0.000000 0.000000 0.000000
		CHANNELS 3 Zrotation Yrotation Xrotation
		JOINT LeftUpLeg
		{
			OFFSET 1.800000 -1.400000 0.085000
			CHANNELS 3 Zrotation Yrotation Xrotation
			JOINT LeftLeg
			{
				OFFSET 2.215000 -6.000000 0.000000
				CHANNELS 3 Zrotation Yrotation Xrotation
				JOINT LeftFoot
				{
					OFFSET 2.500000 -6.900000 0.000000
					CHANNELS 3 Zrotation Yrotation Xrotation
					JOINT LeftToeBase
					{
						OFFSET 0.200000 -0.500000 1.950000
						CHANNELS 3 Zrotation Yrotation Xrotation
						End Site
						{
							OFFSET 0.000000 0.000000 0.000000
						}
					}
				}
			}
		}
	}
	JOINT RHipJoint
	{
		OFFSET 0.000000 0.000000 0.000000
		CHANNELS 3 Zrotation Yrotation Xrotation
		JOINT RightUpLeg
		{
			OFFSET -1.800000 -1.400000 0.085000
			CHANNELS 3 Zrotation Yrotation Xrotation
			JOINT RightLeg
			{
				OFFSET -2.215000 -6.000000 0.000000
				CHANNELS 3 Zrotation Yrotation Xrotation
				JOINT RightFoot
				{
					OFFSET -2.500000 -6.900000 0.000000
					CHANNELS 3 Zrotation Yrotation Xrotation
					JOINT RightToeBase
					{
						OFFSET -0.200000 -0.500000 1.950000
						CHANNELS 3 Zrotation Yrotation Xrotation
						End Site
						{
							OFFSET 0.000000 0.000000 0.000000
						}
					}
				}
			}
		}
	}
	JOINT LowerBack
	{
		OFFSET 0.000000 0.000000 0.000000
		CHANNELS 3 Zrotation Yrotation Xrotation
		JOINT Spine
		{
			OFFSET -0.087000 1.940000 -0.288900
			CHANNELS 3 Zrotation Yrotation Xrotation
			JOINT Spine1
			{
				OFFSET 0.000000 1.950000 0.060000
				CHANNELS 3 Zrotation Yrotation Xrotation
				JOINT Neck
				{
					OFFSET 0.000000 0.000000 0.000000
					CHANNELS 3 Zrotation Yrotation Xrotation
					JOINT Neck1
					{
						OFFSET 0.000000 1.600000 0.340000
						CHANNELS 3 Zrotation Yrotation Xrotation
						JOINT Head
						{
							OFFSET 0.000000 1.667000 -0.240000
							CHANNELS 3 Zrotation Yrotation Xrotation
							End Site
							{
								OFFSET 0.000000 0.000000 0.000000
							}
						}
					}
				}
				JOINT LeftShoulder
				{
					OFFSET 0.000000 0.000000 0.000000
					CHANNELS 3 Zrotation Yrotation Xrotation
					JOINT LeftArm
					{
						OFFSET 2.700000 1.550000 -0.730000
						CHANNELS 3 Zrotation Yrotation Xrotation
						JOINT LeftForeArm
						{
							OFFSET 5.450000 0.000000 0.000000
							CHANNELS 3 Zrotation Yrotation Xrotation
							JOINT LeftHand
							{
								OFFSET 3.450000 0.000000 0.000000
								CHANNELS 3 Zrotation Yrotation Xrotation
								JOINT LeftHandIndex1
								{
									OFFSET 0.750000 0.000000 0.000000
									CHANNELS 3 Zrotation Yrotation Xrotation
									End Site
									{
										OFFSET 0.000000 0.000000 0.000000
									}
								}
							}
						}
					}
				}
				JOINT RightShoulder
				{
					OFFSET 0.000000 0.000000 0.000000
					CHANNELS 3 Zrotation Yrotation Xrotation
					JOINT RightArm
					{
						OFFSET -2.700000 1.550000 -0.730000
						CHANNELS 3 Zrotation Yrotation Xrotation
						JOINT RightForeArm
						{
							OFFSET -5.450000 0.000000 0.000000
							CHANNELS 3 Zrotation Yrotation Xrotation
							JOINT RightHand
							{
								OFFSET -3.450000 0.000000 0.000000
								CHANNELS 3 Zrotation Yrotation Xrotation
								JOINT RightHandIndex1
								{
									OFFSET -0.750000 0.000000 0.000000
									CHANNELS 3 Zrotation Yrotation Xrotation
									End Site
									{
										OFFSET 0.000000 0.000000 0.000000
									}
								}
							}
						}
					}
				}
			}
		}
	}
}
MOTION
Frames: 12
Frame Time: 0.016667
0.355600 16.943870 -2.040730 -4.211349 -1.496569 2.273934 -14.965146 13.066922 3.097643 1.555182 -0.259335 -3.864512 -7.054572 4.627495 5.174961 -0.638815 4.026519 3.409927 0.670850 0.170260 0.470730 18.469929 -10.919729 3.225068 0.225311 -0.676749 -3.139742 6.740630 -4.606759 3.848145 -0.552272 -3.715547 3.494988 0.165730 0.118080 0.235470 -4.132501 -1.153787 -7.906569 12.423722 0.759105 5.325974 -4.787485 1.339526 8.580675 3.922775 -2.537332 -14.944272 -7.652984 3.864340 46.650950 -2.012670 1.699900 -11.016690 -36.226745 -23.462752 8.888094 -43.502101 -4.901115 -2.949413 -8.574888 -21.601454 -0.671134 -3.357586 2.838010 0.922770 0.056100 0.092470 0.355090 28.567468 27.562186 11.901799 46.711567 8.140409 -4.638159 9.388118 23.666800 0.445112 1.778504 -1.337771 -0.302850 0.241780 -0.199150 -0.381080 
0.353430 16.944600 -2.045360 -4.054836 -1.520828 2.217448 -14.980673 13.082619 3.106172 1.385687 -0.256742 -3.864143 -6.899049 4.599274 5.216627 -0.650049 4.015972 3.413807 0.672140 0.170010 0.475640 18.450808 -10.921551 3.218569 0.078085 -0.659962 -3.185192 6.812469 -4.634315 3.994022 -0.552472 -3.711321 3.493579 0.167920 0.117930 0.233160 -4.082407 -1.182722 -7.917087 12.033922 0.752523 5.474520 -4.657985 1.352691 8.802155 3.913892 -2.553969 -15.085491 -7.677917 3.966569 46.615727 -1.905760 1.781360 -11.330640 -36.068881 -23.763703 8.994621 -43.592012 -5.038017 -3.021897 -7.996835 -21.727496 -0.784598 -3.355704 2.828679 0.931680 0.052830 0.094840 0.352450 28.494273 27.916916 11.995486 46.690843 8.358080 -4.635408 9.162988 23.660595 0.409509 1.773914 -1.330644 -0.308670 0.249340 -0.196690 -0.385380 
0.351000 16.947800 -2.052600 -4.004934 -1.519884 2.168000 -14.984599 13.094821 3.104787 1.334746 -0.263478 -3.907394 -6.745161 4.579309 5.327593 -0.655382 4.009610 3.415183 0.670750 0.168200 0.476880 18.443849 -10.933123 3.210466 0.071929 -0.635054 -3.308525 6.740579 -4.646454 4.256471 -0.549488 -3.702364 3.487322 0.168630 0.120540 0.240010 -4.066508 -1.186720 -7.913744 11.873831 0.771175 5.579497 -4.641139 1.388696 9.049171 3.898186 -2.510485 -15.181470 -7.585826 3.994197 46.518105 -1.924570 1.856110 -11.352900 -35.878804 -24.108174 9.087501 -43.533225 -5.377592 -2.924324 -7.616250 -21.612236 -0.843567 -3.363385 2.829774 0.930400 0.055290 0.096750 0.350350 28.360983 28.243897 12.030836 46.719753 8.778683 -4.490355 8.645291 23.443262 0.333398 1.775873 -1.331035 -0.307820 0.248120 -0.193200 -0.384630 
0.351810 16.950540 -2.058360 -4.064707 -1.679927 2.148292 -14.972135 13.081143 3.104203 1.487152 -0.268046 -3.835176 -6.842456 4.583517 5.185677 -0.675248 4.032197 3.410340 0.677600 0.164680 0.488630 18.458336 -10.944842 3.197337 0.119063 -0.616811 -3.419945 6.566896 -4.634565 4.469725 -0.541236 -3.692209 3.490449 0.177900 0.118030 0.229900 -4.103090 -1.151733 -7.895029 12.093230 0.798345 5.532821 -4.791160 1.439617 9.386010 3.900466 -2.584279 -15.266120 -7.719278 4.003444 46.277360 -1.966640 1.820450 -11.414440 -35.636221 -24.445437 9.176745 -43.720300 -5.794526 -2.854467 -6.921815 -21.641625 -0.966544 -3.360277 2.821016 0.941710 0.052960 0.088410 0.348780 28.106361 28.632733 12.099035 46.960937 9.289431 -4.391209 7.700137 23.374047 0.175239 1.766362 -1.334077 -0.324500 0.254240 -0.195220 -0.397720 
0.352920 16.949090 -2.055950 -3.950336 -1.754950 2.190730 -14.962803 13.052165 3.090556 1.482377 -0.259350 -3.726637 -6.847803 4.565997 5.003370 -0.684702 4.050177 3.411635 0.674180 0.159090 0.479980 18.479802 -10.930520 3.184712 -0.017928 -0.632744 -3.331965 6.589352 -4.614461 4.243339 -0.537502 -3.711864 3.483416 0.184440 0.135000 0.222780 -4.148420 -1.142713 -7.846840 12.197481 0.659296 5.257057 -4.992145 1.314424 9.797852 3.759868 -2.941953 -15.233389 -8.379518 4.309565 45.641246 -1.576480 1.692550 -11.341120 -35.255787 -24.636267 9.234440 -44.046001 -6.212962 -2.759196 -6.103070 -21.656638 -1.111281 -3.369948 2.815791 0.938020 0.058550 0.072120 0.349640 28.018949 28.962603 12.094701 47.200167 10.030071 -4.143933 6.688741 23.045593 0.012503 1.763973 -1.335734 -0.336710 0.265830 -0.187620 -0.396570 
0.354310 16.946820 -2.058890 -3.948683 -1.916892 2.214146 -14.946726 13.048498 3.072861 1.530099 -0.256903 -3.728697 -6.701000 4.549509 5.025262 -0.700072 4.058850 3.423549 0.662850 0.150540 0.467030 18.500026 -10.933980 3.169144 -0.106883 -0.619526 -3.427215 6.714244 -4.648545 4.434106 -0.527203 -3.715364 3.492175 0.189640 0.163150 0.206580 -4.199797 -1.142884 -7.802292 12.471333 0.566971 5.159968 -5.191235 1.265472 10.104988 3.617034 -3.303763 -15.222675 -9.074757 4.567762 44.947773 -1.184130 1.527820 -11.520960 -34.834561 -24.873233 9.250162 -44.478886 -6.850149 -2.548605 -5.252990 -21.512179 -1.251551 -3.387217 2.781999 0.936340 0.067340 0.055850 0.353490 27.879786 29.333980 12.116973 47.432230 10.760780 -3.942482 5.850124 22.869586 -0.122831 1.756749 -1.320758 -0.357830 0.299220 -0.177900 -0.392700 
0.360510 16.946770 -2.063500 -3.938936 -2.194314 2.226075 -14.936410 13.049624 3.047982 1.517084 -0.261293 -3.762411 -6.409746 4.528666 5.252963 -0.731216 4.070449 3.431208 0.647530 0.131930 0.465810 18.512519 -10.942984 3.161513 -0.224592 -0.599555 -3.519900 6.869703 -4.684598 4.517467 -0.521431 -3.717102 3.491728 0.192100 0.185850 0.199070 -4.229830 -1.128331 -7.760804 12.643847 0.552639 5.132276 -5.359115 1.278306 10.391943 3.609185 -3.481695 -15.121420 -9.368749 4.620628 44.301696 -1.360090 1.517630 -12.063570 -34.688714 -25.044403 9.196080 -44.871055 -7.670243 -2.242696 -4.280646 -21.081319 -1.413218 -3.416517 2.736030 0.945150 0.076840 0.047030 0.347150 27.745009 29.583039 12.068982 47.712147 11.550647 -3.762391 4.841788 22.713088 -0.280029 1.746375 -1.296947 -0.383170 0.333380 -0.160660 -0.398410 
0.363810 16.946010 -2.062690 -3.793984 -2.409148 2.192484 -14.939552 13.037445 2.999592 1.473938 -0.248262 -3.725660 -6.046597 4.548842 5.773423 -0.796171 4.133740 3.427217 0.600590 0.071340 0.445920 18.517338 -10.967812 3.139592 -0.465017 -0.592599 -3.494935 6.856585 -4.732679 4.620893 -0.494611 -3.750951 3.493631 0.189010 0.240380 0.187590 -4.230341 -1.061363 -7.673350 12.419564 0.631500 4.873956 -5.351303 1.306134 10.892322 3.590895 -3.470456 -14.810600 -9.105023 4.507956 43.178364 -1.976770 1.626200 -12.192660 -34.347341 -25.140377 9.099431 -45.250379 -8.554073 -1.965688 -3.636715 -21.031704 -1.557062 -3.487931 2.663333 0.952680 0.116190 0.007850 0.329430 27.477247 29.637723 11.893720 48.238111 12.544966 -3.526925 3.424939 22.439228 -0.518894 1.713185 -1.259760 -0.439480 0.386300 -0.112200 -0.416850 
0.365130 16.952340 -2.062880 -3.686931 -2.660206 2.082335 -14.943686 13.043494 2.977835 1.618979 -0.218253 -3.541878 -5.891878 4.573817 5.990177 -0.824831 4.186290 3.417547 0.578500 0.042610 0.444170 18.514484 -10.973708 3.137980 -0.620449 -0.615885 -3.305450 6.748339 -4.733949 4.472743 -0.492770 -3.766634 3.490101 0.185140 0.263400 0.185370 -4.216567 -1.056614 -7.651299 12.208900 0.675808 4.776089 -5.296884 1.325940 11.356689 3.587179 -3.439502 -14.900984 -9.022194 4.563367 43.182340 -2.360440 1.797620 -12.462030 -34.435312 -25.593098 9.243848 -45.167049 -9.023332 -1.850418 -3.263637 -21.118215 -1.642077 -3.515283 2.619755 0.966540 0.130810 -0.000270 0.317220 27.623952 30.079272 11.959348 48.485626 13.282861 -3.420206 1.864071 22.154891 -0.770173 1.695403 -1.235644 -0.466540 0.416760 -0.087820 -0.427310 
0.369220 16.960200 -2.066530 -3.772649 -2.713426 1.910576 -14.929137 13.043029 2.931135 1.914825 -0.191580 -3.336412 -5.587330 4.585866 6.342270 -0.852116 4.236913 3.407410 0.569980 0.031590 0.440820 18.534997 -10.986531 3.137873 -0.555933 -0.655512 -3.071903 6.482445 -4.717313 4.373339 -0.500007 -3.782724 3.483919 0.189380 0.290520 0.192640 -4.266591 -1.023965 -7.597308 12.446122 0.598194 4.625337 -5.473857 1.226436 12.045047 3.579690 -3.469426 -14.911040 -9.049555 4.656441 43.143233 -2.364630 1.757160 -12.904270 -34.273657 -26.120855 9.344964 -45.468806 -9.960366 -1.502061 -2.566868 -20.735119 -1.771200 -3.548602 2.582256 0.976680 0.145250 -0.002880 0.314980 27.484191 30.546733 11.954541 48.893457 14.351226 -3.230895 0.343440 21.868901 -1.030252 1.676977 -1.218205 -0.483090 0.448110 -0.067480 -0.428650 
0.373700 16.961410 -2.070800 -3.724900 -2.884428 1.849015 -14.933780 13.022093 2.895594 2.225137 -0.157492 -3.100318 -5.497374 4.597720 6.349144 -0.874843 4.289649 3.397442 0.561140 0.024750 0.438180 18.541069 -10.997220 3.115681 -0.600869 -0.661952 -3.031654 6.194063 -4.690361 4.419006 -0.492325 -3.795034 3.477830 0.200550 0.316950 0.190990 -4.267082 -0.969164 -7.527708 12.236148 0.601230 4.332038 -5.393999 1.147701 12.821967 3.533541 -3.364875 -14.832333 -8.680216 4.626241 42.531949 -2.426970 1.818280 -13.038490 -33.806108 -26.667666 9.457761 -46.186671 -11.032447 -1.187436 -1.640774 -20.559288 -1.951730 -3.582728 2.555099 0.973540 0.164650 -0.016620 0.310530 27.168942 30.971740 11.872974 49.476280 15.592788 -2.932605 -1.341295 21.420825 -1.344858 1.665012 -1.218103 -0.502990 0.473120 -0.052670 -0.430930 
0.381450 16.966600 -2.078480 -3.795976 -3.034931 1.647106 -14.929764 13.012178 2.855612 2.514421 -0.138979 -2.839192 -5.106992 4.550403 6.457980 -0.902550 4.310942 3.386750 0.580080 0.041160 0.456550 18.552039 -11.007681 3.115319 -0.592873 -0.689219 -2.825706 5.999443 -4.667802 4.295579 -0.504563 -3.816823 3.459513 0.220270 0.317020 0.199900 -4.287646 -0.925995 -7.481870 12.254271 0.524784 4.203038 -5.365084 1.012071 13.951569 3.562490 -3.309118 -15.063829 -8.461899 4.751625 42.366099 -2.465170 1.970320 -13.468610 -33.270649 -27.664578 9.797265 -46.826635 -12.019672 -1.203660 -0.652111 -21.141572 -2.225326 -3.585075 2.557714 0.982310 0.168610 -0.012710 0.308740 26.658308 31.912242 11.988684 49.863522 16.958970 -2.762319 -2.957665 21.223622 -1.673358 1.646523 -1.235164 -0.507560 0.480070 -0.051730 -0.439370 
